<svg width="51" height="49" viewBox="0 0 51 49" fill="none" xmlns="http://www.w3.org/2000/svg">
<path d="M50.367 22.438C49.497 15.988 45.567 9.69798 40.567 5.49798C35.567 1.29798 29.117 -0.0320246 22.667 0.837975C19.0242 1.23361 15.5452 2.56319 12.567 4.69798C9.95331 6.48508 7.62095 8.65229 5.64704 11.128C3.55792 14 2.10761 17.2859 1.39354 20.7648C0.679466 24.2437 0.718165 27.8352 1.50704 31.298C4.19704 43.218 18.137 49.698 29.627 48.638C32.7242 48.4329 35.7437 47.5791 38.4897 46.132C41.2358 44.6849 43.647 42.6768 45.567 40.238C47.543 37.7499 49.0293 34.9098 49.947 31.868C50.7559 28.7902 50.8991 25.5754 50.367 22.438ZM46.567 35.468C43.797 40.638 39.327 44.788 33.567 46.268C22.077 49.268 7.02704 44.028 3.28704 31.828C1.38704 25.658 3.06704 18.038 6.72704 12.828C10.817 7.05798 16.627 4.04798 23.367 2.40798C27.6958 1.81405 32.1029 2.54624 36.007 4.50798C41.007 7.22798 44.817 12.298 47.077 17.398C48.334 20.2601 48.9402 23.3655 48.852 26.4903C48.7638 29.615 47.9834 32.6813 46.567 35.468Z" fill="#151824"/>
<path d="M28.897 14.528C28.057 13.338 27.277 12.118 26.437 10.928C26.017 10.338 25.387 9.75798 24.667 10.278C23.8496 11.15 23.3985 12.3028 23.407 13.498C23.3089 14.1224 23.4015 14.7619 23.6727 15.3328C23.9438 15.9037 24.381 16.3795 24.927 16.698C25.287 16.888 25.587 16.518 25.447 16.178C25.0762 15.3415 24.8465 14.4495 24.767 13.538C24.7604 13.001 24.845 12.4667 25.017 11.958L25.197 11.378C25.427 11.118 25.607 11.168 25.717 11.548C26.1932 12.1697 26.6022 12.8401 26.937 13.548C27.2997 14.161 27.7667 14.7058 28.317 15.158C28.657 15.348 29.127 14.858 28.897 14.528Z" fill="#151824"/>
<path d="M41.1071 12.298C40.1071 11.218 37.7771 11.118 36.3671 10.928C34.8091 10.7685 33.242 10.7183 31.6771 10.778C32.0271 10.268 32.5771 9.77797 32.7971 9.37797C33.3687 8.61145 33.858 7.78691 34.257 6.91797C34.417 6.48797 34.0071 6.13797 33.6271 6.09797C32.7488 6.17121 31.9062 6.47854 31.187 6.98797C30.187 7.53797 29.187 8.35797 28.187 8.98797C28.187 7.04797 28.0571 4.53797 26.6171 3.33797C26.5235 3.25433 26.4025 3.2081 26.2771 3.2081C26.1516 3.2081 26.0306 3.25433 25.9371 3.33797C24.7371 4.28797 24.2571 6.50797 23.7771 8.13797C22.561 7.25886 21.21 6.58338 19.7771 6.13797C19.6313 6.10085 19.4768 6.12183 19.3462 6.19646C19.2156 6.27109 19.1191 6.39354 19.0771 6.53797C18.7571 8.13797 20.7271 9.70797 21.7971 10.968C21.4271 10.878 21.0671 10.788 20.6771 10.718C19.7093 10.6362 18.7378 10.6095 17.7671 10.638C15.8771 10.528 14.0071 10.018 12.1171 9.82797C11.6271 9.77797 11.5371 10.458 11.8771 10.688C13.1271 11.488 14.0571 12.688 15.4271 13.288C16.645 13.7742 17.9177 14.11 19.2171 14.288C18.8871 14.428 18.5571 14.578 18.2171 14.738C17.1023 15.3044 16.064 16.01 15.1271 16.838C14.1163 17.6785 13.2188 18.6465 12.4571 19.718C11.8518 20.4621 11.4735 21.3647 11.3671 22.318C11.3697 22.421 11.3988 22.5217 11.4516 22.6102C11.5044 22.6987 11.5791 22.7721 11.6685 22.8234C11.758 22.8747 11.8591 22.902 11.9622 22.9028C12.0653 22.9036 12.1668 22.8778 12.2571 22.828C13.8171 22.068 15.2571 21.038 16.8271 20.258C18.0711 19.6613 19.3501 19.1403 20.6571 18.698C19.4167 20.1954 18.4272 21.884 17.7271 23.698C16.9971 25.438 15.2871 29.338 16.6771 31.128C18.0671 32.918 19.9971 29.128 20.4971 28.328C21.4971 26.678 22.4971 25.048 23.4971 23.418C24.1632 22.1291 24.9148 20.8863 25.7471 19.698C25.7471 20.158 25.6671 20.698 25.7471 21.008C25.8544 21.8381 26.0181 22.66 26.2371 23.468C26.4071 24.178 26.577 24.888 26.757 25.598C27.137 27.018 27.547 29.438 28.757 30.408C30.647 31.878 31.047 28.118 31.187 27.118C31.3671 25.4261 31.3671 23.7199 31.187 22.028C31.0344 20.9575 30.797 19.9008 30.4771 18.868C32.504 19.3969 34.4416 20.2225 36.2271 21.318C37.2817 21.9163 38.2011 22.7267 38.9271 23.698C39.2371 24.138 39.3071 24.548 39.9271 24.638C40.0273 24.6617 40.132 24.6592 40.231 24.6307C40.33 24.6022 40.42 24.5487 40.4923 24.4754C40.5646 24.4021 40.6169 24.3113 40.644 24.2119C40.6711 24.1126 40.6721 24.0079 40.6471 23.908C40.1552 21.795 39.0446 19.8766 37.4571 18.398C36.7441 17.6527 35.9567 16.9826 35.1071 16.398C34.5471 16.018 33.377 15.708 32.687 15.258C34.167 14.408 36.457 14.308 37.987 14.108C38.987 13.968 40.727 14.108 41.257 13.108C41.3295 12.9764 41.3541 12.8238 41.3267 12.6762C41.2994 12.5285 41.2218 12.3949 41.1071 12.298ZM37.1771 12.978C36.2571 13.098 35.337 13.238 34.417 13.438C33.283 13.6059 32.2041 14.0374 31.2671 14.698C31.1732 14.7924 31.1134 14.9154 31.0971 15.0476C31.0808 15.1797 31.1089 15.3136 31.1771 15.428C31.4141 15.7497 31.7362 15.9991 32.1071 16.148C33.3015 16.701 34.4288 17.3888 35.4671 18.198C36.5508 19.1022 37.5004 20.1561 38.2871 21.328C37.6664 20.822 36.9963 20.3797 36.2871 20.008C34.3082 18.878 32.166 18.0617 29.937 17.588C29.8418 17.5644 29.742 17.5659 29.6475 17.5923C29.5529 17.6186 29.4668 17.6689 29.3974 17.7383C29.328 17.8077 29.2777 17.8938 29.2513 17.9884C29.225 18.0829 29.2235 18.1827 29.2471 18.278C29.3671 19.228 29.8271 20.138 29.9671 21.118C30.1486 22.49 30.2155 23.8748 30.167 25.258C30.1229 26.2392 30.0026 27.2154 29.8071 28.178L29.667 28.868C29.667 29.5346 29.5571 29.6646 29.3371 29.258C28.9171 29.018 28.6271 27.828 28.4771 27.408C28.0671 26.298 27.7771 25.148 27.4771 24.008C27.1346 22.9282 26.887 21.8207 26.737 20.698C26.687 19.868 26.9771 19.098 26.5171 18.358C26.4402 18.2335 26.3185 18.1433 26.177 18.1061C26.0356 18.0688 25.8852 18.0874 25.7571 18.158C24.3971 19.158 23.5671 21.158 22.6671 22.528C21.2071 24.818 19.3971 27.078 18.1271 29.458C17.8671 29.948 18.1271 30.458 17.7771 29.818C17.4271 29.178 17.8471 28.368 17.9771 27.738C18.2142 26.5492 18.5487 25.3819 18.9771 24.248C19.8671 21.928 21.0771 19.478 23.0871 17.938C23.5371 17.588 23.3071 16.738 22.6671 16.938C20.6838 17.5473 18.7401 18.2787 16.8471 19.128C15.4871 19.758 14.1971 20.528 12.8471 21.228C13.25 20.5691 13.7227 19.9556 14.2571 19.398C15.1751 18.3736 16.2163 17.4667 17.3571 16.698C18.301 16.0406 19.349 15.5471 20.4571 15.238C21.1171 15.088 21.5671 15.078 21.9971 14.508C22.045 14.4268 22.0734 14.3356 22.0802 14.2415C22.0869 14.1475 22.0718 14.0531 22.0359 13.9659C22.0001 13.8787 21.9445 13.801 21.8736 13.7389C21.8026 13.6768 21.7182 13.632 21.6271 13.608C19.7796 13.4215 17.9459 13.1176 16.1371 12.698C15.1451 12.3191 14.2477 11.7288 13.5071 10.968C16.2983 11.4924 19.1385 11.7103 21.9771 11.618C22.0231 11.6783 22.0845 11.725 22.155 11.7532C22.2254 11.7813 22.3021 11.7899 22.3771 11.778L22.5671 11.698C22.6572 11.695 22.745 11.6692 22.8223 11.6228C22.8997 11.5765 22.9639 11.5112 23.0089 11.4331C23.054 11.355 23.0784 11.2667 23.0798 11.1766C23.0812 11.0864 23.0596 10.9974 23.0171 10.918C22.5871 10.298 22.0171 9.77797 21.5371 9.17797C21.0827 8.67417 20.6681 8.13588 20.2971 7.56797C21.5044 8.14248 22.6647 8.81122 23.7671 9.56797C23.8494 9.61382 23.941 9.6406 24.0351 9.64633C24.1292 9.65207 24.2234 9.63661 24.3107 9.6011C24.3981 9.56559 24.4763 9.51094 24.5397 9.44117C24.6031 9.3714 24.65 9.28829 24.6771 9.19797C24.9471 8.35797 25.2071 7.51797 25.4371 6.67797C25.5371 6.33797 25.6071 5.99797 25.7071 5.67797C25.8071 5.35797 25.8071 4.24797 26.3671 4.67797C26.9271 5.10797 26.7971 6.34797 26.8671 6.98797C26.9754 7.96075 26.9988 8.94112 26.937 9.91797C26.9387 10.0086 26.9609 10.0977 27.0019 10.1785C27.0429 10.2594 27.1017 10.3299 27.1739 10.3847C27.2461 10.4396 27.3297 10.4774 27.4186 10.4953C27.5075 10.5131 27.5993 10.5106 27.687 10.488C28.6176 10.033 29.5104 9.50467 30.3571 8.90797C31.0017 8.47537 31.6693 8.07812 32.3571 7.71797C31.4671 8.93797 30.2071 10.048 30.0371 11.438C30.0396 11.6158 30.1106 11.7858 30.2355 11.9125C30.3603 12.0392 30.5293 12.1128 30.7071 12.118C32.2571 12.118 33.7071 12.008 35.3071 12.118C36.1597 12.1964 37.0075 12.3199 37.847 12.488C38.187 12.558 38.7771 12.608 39.3071 12.718C38.4971 12.908 37.4371 12.938 37.1771 12.978Z" fill="#151824"/>
</svg>
