<svg width="46" height="88" viewBox="0 0 46 88" fill="none" xmlns="http://www.w3.org/2000/svg">
<path d="M45.7946 16.3569C45.4746 15.2369 43.9546 14.8669 42.8846 14.5469C43.4746 13.4869 44.1346 12.1669 43.6946 11.3269C43.6005 11.1578 43.4684 11.013 43.3087 10.9036C43.1491 10.7943 42.9662 10.7235 42.7746 10.6969C41.9946 10.4569 41.2446 10.3469 40.5046 10.1069C40.8146 9.30689 41.1646 8.47689 41.5046 7.72689C41.7146 7.28689 42.1246 6.84689 42.0846 6.32689C41.9646 4.79689 39.0846 4.85689 38.0846 4.67689C36.8146 4.44689 34.7146 3.46689 33.7646 4.67689C33.2817 5.52172 32.9819 6.45867 32.8846 7.42689C32.6446 8.42689 32.3446 9.30689 32.0546 10.2469C31.4646 10.2469 30.8546 10.3769 30.3746 10.4469C30.5746 9.44689 30.8046 8.44689 31.0446 7.44689C31.2846 6.44689 31.7146 5.74689 31.8546 4.87689C32.1046 3.44689 30.6046 3.31689 29.5446 3.22689C28.4846 3.13689 27.7246 2.92689 26.7246 2.82689C26.2246 2.74689 25.8046 2.73689 25.4846 3.18689C25.2175 3.82219 25.0619 4.49876 25.0246 5.18689C25.0118 5.8825 24.9348 6.57543 24.7946 7.25689H24.3446C23.541 7.22306 22.7448 7.08867 21.9746 6.85689C22.0598 5.9105 22.2682 4.97929 22.5946 4.08689C22.7646 3.42689 23.2946 2.40689 22.9646 1.70689C22.3846 0.496889 19.8346 0.536893 18.6946 0.476893C17.6946 0.476893 16.6946 0.116889 15.7846 0.0668894C15.5518 0.0512866 15.319 0.0976702 15.11 0.201312C14.9009 0.304953 14.7231 0.462153 14.5946 0.656893C14.2109 1.40929 14.0545 2.25712 14.1446 3.09689C14.0698 3.7046 14.0698 4.31918 14.1446 4.92689C13.3846 4.84689 12.5046 4.72689 11.6746 4.71689C11.827 3.81865 11.8906 2.90759 11.8646 1.99689C11.8456 1.84394 11.781 1.70023 11.6794 1.58435C11.5778 1.46846 11.4437 1.38574 11.2946 1.34689C10.3224 1.22401 9.33528 1.3023 8.39459 1.57689C7.28633 1.61746 6.18457 1.7648 5.10459 2.01689C3.43459 2.55689 3.97459 5.01689 4.10459 6.44689C4.10459 6.83689 4.10459 7.22689 4.17459 7.61689C3.82691 7.50639 3.45728 7.48367 3.09869 7.55077C2.74009 7.61787 2.40368 7.77271 2.11948 8.00145C1.83529 8.2302 1.61213 8.52574 1.46994 8.86171C1.32775 9.19768 1.27095 9.56363 1.3046 9.92689C1.4446 11.5569 2.0346 13.2469 2.3046 14.8669C2.4546 15.6169 2.52459 16.4469 2.74459 17.1969C2.61421 17.2847 2.50822 17.4042 2.43652 17.5441C2.36482 17.684 2.32975 17.8398 2.3346 17.9969C2.7146 22.5569 1.87459 26.9969 1.97459 31.6069C1.97459 33.6069 1.97459 35.6669 2.17459 37.7069C2.17459 38.1269 2.26459 38.5269 2.31459 38.9369C2.10459 42.2469 1.89459 45.5669 1.71459 48.8669C1.23459 58.0169 1.1046 67.1569 0.844597 76.2969C0.694644 78.3267 0.664588 80.3636 0.754593 82.3969C0.884593 83.7369 0.904596 85.9169 2.1946 86.7569C3.4846 87.5969 4.4946 86.7569 5.1946 85.7569C6.7246 83.9269 8.0846 81.9269 9.3746 79.9269C14.7079 71.7269 19.8779 63.4369 24.8846 55.0569C27.6546 50.4169 30.4646 45.7869 33.0846 41.0569C34.4046 38.6769 35.8946 36.3969 37.2146 34.0569C38.5141 32.0282 39.6478 29.898 40.6046 27.6869C40.6633 27.5112 40.6549 27.32 40.5811 27.1502C40.5072 26.9803 40.3731 26.8438 40.2046 26.7669C40.703 26.0817 41.154 25.3634 41.5546 24.6169C42.5546 22.9269 43.5546 21.2669 44.5546 19.6169C45.0846 18.6869 46.0946 17.4269 45.7946 16.3569ZM40.4846 11.7169C40.8863 11.7956 41.2835 11.8958 41.6746 12.0169C42.4046 12.3269 42.1746 11.9469 42.0646 12.6569C41.8246 14.0769 40.7446 15.6569 40.2646 17.0469C38.9346 20.8769 36.8046 24.3169 35.0946 27.9669C33.5831 28.4761 32.0354 28.8706 30.4646 29.1469C31.8346 25.7369 33.6146 22.5069 34.8446 19.0469C35.4446 17.3469 36.0746 15.6869 36.7746 14.0469C37.0946 13.2969 37.4446 12.5769 37.7746 11.8569C37.8846 11.6469 38.0846 10.9769 38.2646 10.8569C38.6546 10.5669 38.2646 10.7469 38.7846 10.9469H38.8846C38.9059 11.0243 38.9431 11.0964 38.9938 11.1587C39.0445 11.221 39.1075 11.2721 39.1789 11.3088C39.2504 11.3455 39.3287 11.3669 39.4088 11.3717C39.489 11.3766 39.5693 11.3647 39.6446 11.3369C39.909 11.4955 40.1909 11.623 40.4846 11.7169ZM34.8446 5.31689C35.1946 5.08689 37.1046 5.79689 37.5546 5.89689C38.4155 6.14027 39.2904 6.33063 40.1746 6.46689C40.3226 6.50108 40.4765 6.50108 40.6246 6.46689C40.5246 6.63689 40.3546 6.86689 40.3246 6.91689C39.8599 7.73898 39.4652 8.59867 39.1446 9.48689C38.3946 9.07689 37.8246 8.89689 37.2246 9.77689C36.1769 11.5527 35.3252 13.4371 34.6846 15.3969C33.4546 18.6069 32.3446 21.8669 31.1846 25.0969C31.7346 21.9869 32.2746 18.8869 33.1246 15.7969C33.4546 14.5969 34.6746 12.2069 34.0246 10.9769C33.9334 10.8185 33.8095 10.6813 33.6612 10.5745C33.513 10.4676 33.3437 10.3934 33.1646 10.3569C33.6343 9.76762 33.975 9.08624 34.1646 8.35689C34.2946 7.71689 34.2846 5.69689 34.8446 5.31689ZM31.3946 11.7669C32.5446 11.7069 32.8046 11.5869 32.5746 12.7669C32.2246 14.5769 31.6846 16.3569 31.2246 18.1369C30.2246 21.8569 29.8346 25.6269 29.0446 29.3669C27.8109 29.5309 26.5689 29.6244 25.3246 29.6469C25.7371 28.1993 26.0709 26.7305 26.3246 25.2469C26.6446 23.2469 26.9746 21.3169 27.2246 19.3369C27.4198 17.7338 27.53 16.1216 27.5546 14.5069C27.5546 13.9869 27.2346 12.0069 27.6146 11.7569C28.1814 11.7532 28.7473 11.8034 29.3046 11.9069C29.9946 11.9269 30.7246 11.8069 31.3946 11.7669ZM26.3946 8.76689C26.3946 7.87689 26.0846 7.48689 25.5246 7.33689C25.8951 6.74608 26.1528 6.09168 26.2846 5.40689C26.2846 5.26689 26.7246 4.10689 26.5246 4.08689C27.227 4.16129 27.9248 4.27479 28.6146 4.42689C29.2068 4.38176 29.8025 4.41877 30.3846 4.53689C30.8146 4.73689 30.8146 4.27689 30.5646 5.10689C30.4746 5.41689 30.3046 5.70689 30.1946 6.00689C29.7108 7.43526 29.3266 8.89542 29.0446 10.3769C28.0446 10.2269 26.9746 9.96689 26.3646 10.8469C26.0839 11.4526 25.9699 12.1224 26.0346 12.7869C26.0346 13.8769 26.0346 14.9569 25.9246 16.0469C25.6546 20.5469 24.3846 25.0469 24.5446 29.5869C23.2563 29.5937 21.9693 29.5034 20.6946 29.3169C20.8446 28.5969 21.2146 27.6969 21.3246 27.2369C21.6846 25.7769 22.0746 24.3369 22.4146 22.8669C23.0646 20.1169 23.9046 17.3969 24.7046 14.6869C25.2346 12.9269 26.3146 10.7569 26.3746 8.81689L26.3946 8.76689ZM20.7646 9.25689C20.7903 8.81824 20.8573 8.38298 20.9646 7.95689C20.9646 8.18689 22.3646 8.44689 21.9646 8.34689C22.6644 8.49908 23.3784 8.57618 24.0946 8.57689C25.0946 8.57689 25.0946 8.89689 24.8046 9.82689C24.5146 10.7569 24.2946 11.4269 24.0446 12.2369C23.3846 14.4169 22.7446 16.6169 22.1246 18.8169C21.4646 21.1669 20.9346 23.5569 20.2646 25.8969C19.8918 26.9291 19.6009 27.989 19.3946 29.0669C18.0659 28.7524 16.78 28.279 15.5646 27.6569C15.7846 26.8969 16.2246 26.1669 16.4646 25.4369C16.7646 24.5036 17.0246 23.5636 17.2446 22.6169C17.7546 20.3369 18.4646 18.1569 19.1646 15.9369C19.8115 13.7587 20.3323 11.545 20.7246 9.30689L20.7646 9.25689ZM15.9446 1.38689C16.1746 1.20689 17.2646 1.57689 17.6346 1.58689C18.6709 1.63268 19.7031 1.74625 20.7246 1.92689C22.0546 2.17689 21.6046 2.83689 21.2946 3.92689C20.9924 4.80081 20.7584 5.69683 20.5946 6.60689C20.5946 6.60689 20.5946 6.68689 20.5946 6.72689C20.4563 6.72057 20.3187 6.74934 20.1946 6.81054C20.0704 6.87174 19.9638 6.96337 19.8846 7.07689C19.4346 7.60689 19.4246 8.79689 19.2846 9.43689C18.9946 10.7969 18.7146 12.1669 18.3446 13.5169C17.6446 16.0669 16.5546 18.5169 15.9846 21.1269C15.9246 21.3869 15.8746 21.6569 15.8146 21.9169C15.9046 19.0629 16.145 16.2156 16.5346 13.3869C16.8646 11.1969 17.4346 8.69689 17.1746 6.46689C17.0346 5.27689 16.2646 5.16689 15.3046 5.11689C15.4437 4.86551 15.548 4.59637 15.6146 4.31689C15.7246 3.81689 15.7246 1.60689 15.9246 1.43689L15.9446 1.38689ZM11.0346 6.29689C12.2646 5.89689 14.2046 6.40689 15.4546 6.44689C16.2346 6.44689 15.9246 6.28689 16.0246 6.80689C16.1066 7.86831 16.063 8.9357 15.8946 9.98689C15.6946 12.1169 15.2046 14.2069 14.8946 16.3269C14.4546 19.8169 14.4746 23.3269 14.0946 26.8769C12.6394 25.957 11.2764 24.8987 10.0246 23.7169C10.1246 22.9569 10.1946 21.9469 10.2046 21.9069C10.2046 20.9069 10.2046 19.8269 10.2046 18.7869C10.2646 16.7869 10.3246 14.7869 10.2046 12.7869C10.1946 11.4569 9.2946 6.92689 11.0146 6.34689L11.0346 6.29689ZM6.5246 3.23689C7.1646 3.10689 7.8446 3.10689 8.5246 3.02689C8.7646 3.02689 10.6746 2.73689 10.5246 2.57689C10.8146 2.86689 10.3946 4.18689 10.3846 4.84689C10.2796 4.8709 10.1761 4.90096 10.0746 4.93689C8.57459 5.48689 8.6146 7.11689 8.5946 8.48689C8.5946 11.0069 8.8346 13.4869 8.8846 16.0369C8.8846 18.2469 8.8846 20.5169 9.0846 22.7369C8.0846 21.7369 7.0846 20.6469 6.0846 19.5769C6.1247 19.061 6.1247 18.5428 6.0846 18.0269C5.9646 16.7769 5.78459 15.5269 5.72459 14.2769C5.61459 11.8269 5.81459 9.40689 5.61459 6.95689C5.47972 6.00163 5.47972 5.03215 5.61459 4.07689C5.72459 3.31689 5.55459 3.47689 6.50459 3.28689L6.5246 3.23689ZM2.72459 10.6069C2.51459 9.09689 3.08459 9.03689 4.15459 9.08689C4.20459 11.0869 4.20459 13.0869 4.40459 15.0869C4.50459 16.1869 4.68459 17.2769 4.85459 18.3569L3.9446 17.3569C3.85108 15.8925 3.62346 14.4397 3.2646 13.0169C3.1546 12.1969 2.87459 11.4169 2.72459 10.6069ZM11.4846 72.9269C8.9846 76.6569 6.64459 80.5069 3.92459 84.0869C3.20459 85.0869 3.3046 84.5269 3.1346 83.5569C2.96486 82.4979 2.86465 81.429 2.8346 80.3569C2.8346 78.4069 2.98459 76.4569 2.93459 74.5069C2.70459 66.1569 2.93459 57.7169 3.22459 49.3569C3.28459 47.7969 3.33459 46.2369 3.39459 44.6669C3.43323 44.638 3.46432 44.6001 3.48521 44.5566C3.50611 44.5131 3.51619 44.4651 3.5146 44.4169C3.5146 43.6769 3.5146 42.9369 3.5146 42.2069C3.7046 36.5869 3.85459 30.9569 3.89459 25.3269C4.06459 23.6669 4.21459 21.9969 4.25459 20.3269L5.3346 21.5469C5.4246 22.5469 5.47459 23.4869 5.60459 24.4669C5.85234 26.0209 6.18619 27.5599 6.60459 29.0769C7.56648 33.1893 8.76515 37.2427 10.1946 41.2169C11.4846 44.6369 12.7746 48.2169 14.9946 51.1469C15.9946 52.4869 16.9946 53.8369 17.9946 55.1469C18.9046 56.2969 19.8846 57.3469 20.8446 58.4369C17.8113 63.3569 14.6913 68.1869 11.4846 72.9269ZM36.0146 32.5669C34.9546 34.5669 33.7946 36.4969 32.6646 38.4569C30.4446 42.3302 28.2046 46.1836 25.9446 50.0169C24.5246 52.4369 23.0646 54.8369 21.5946 57.2269C19.5795 55.1011 17.7338 52.8208 16.0746 50.4069C13.8946 47.1169 12.6246 43.1469 11.1946 39.4969C9.7646 35.8469 8.78459 31.9969 7.54459 28.2469C6.98308 26.5292 6.55514 24.7706 6.2646 22.9869C6.2646 22.8269 6.2146 22.6769 6.1946 22.5269C9.9546 26.5869 14.1146 30.1969 19.9046 31.1169C23.339 31.6007 26.828 31.5433 30.2446 30.9469C32.9226 30.4417 35.5598 29.7398 38.1346 28.8469C37.4846 30.1569 36.6546 31.4069 36.0146 32.6069V32.5669ZM41.8446 21.2369C40.9046 22.7169 40.0046 24.2369 39.0346 25.6469C38.7433 25.9972 38.5318 26.4066 38.4146 26.8469L36.8646 27.3469C37.7246 25.6169 38.6446 23.9269 39.4746 22.1869C40.4746 20.0469 41.2946 17.8369 42.2546 15.6769C42.2546 15.5669 42.3746 15.4369 42.4446 15.3069C42.6105 15.4954 42.7985 15.6633 43.0046 15.8069C43.7446 16.3269 44.3346 16.3369 44.1546 17.3469C43.9346 18.6569 42.5246 20.1969 41.8446 21.2769V21.2369Z" fill="#151824"/>
</svg>
