<svg width="48" height="91" viewBox="0 0 48 91" fill="none" xmlns="http://www.w3.org/2000/svg">
<path d="M27.8985 81.8705C27.3697 81.0182 26.7745 80.2091 26.1185 79.4505C25.7732 79.066 25.5403 78.594 25.445 78.0861C25.3498 77.5782 25.396 77.0539 25.5785 76.5705C25.9481 74.0149 26.1784 71.4411 26.2685 68.8605C26.6885 63.8605 26.9085 57.4605 30.2685 53.4805H30.3385C30.4986 53.4997 30.6609 53.4755 30.8085 53.4105C31.1971 53.3415 31.5763 53.2274 31.9385 53.0705C32.0661 53.0182 32.1768 52.9317 32.2585 52.8205C34.0116 52.2406 35.6327 51.3196 37.0285 50.1105C38.6885 48.4305 37.8085 46.1105 38.6585 44.1105C39.7085 41.6405 42.4885 40.4305 43.2785 37.7305C43.5333 36.7007 43.5944 35.6326 43.4585 34.5805C43.3045 33.8982 43.234 33.1998 43.2485 32.5005C43.54 31.6367 44.0621 30.869 44.7585 30.2805C46.1185 28.7005 47.4885 26.7505 47.3585 24.5605C47.2185 22.0405 45.6985 20.0305 44.6585 17.8305C43.6185 15.6305 45.1485 13.0405 44.0685 10.7005C43.2385 8.90049 41.3085 7.87049 39.5985 7.06049C38.2785 6.43049 36.4185 6.26049 35.4285 5.06049C34.8852 4.19624 34.2479 3.3947 33.5285 2.67049C31.6761 1.36168 29.4759 0.634104 27.2085 0.580496C24.7285 0.460496 22.5385 1.44049 20.2085 2.02049C17.8785 2.60049 15.5885 2.1905 13.4985 3.3305C11.4085 4.4705 10.6385 6.88049 8.58845 7.81049C6.53845 8.74049 4.80845 9.3205 3.58845 11.2205C2.48938 12.9737 1.90709 15.0013 1.90846 17.0705C2.00354 17.6463 2.06365 18.2274 2.08845 18.8105C1.99512 19.5519 1.76813 20.2701 1.41847 20.9305C0.963398 21.886 0.73091 22.9322 0.738475 23.9905C0.818475 26.4205 2.14845 28.5005 3.36845 30.5305C4.36845 32.1205 4.67846 32.8705 4.15846 34.7105C3.79543 35.7838 3.60308 36.9075 3.58845 38.0405C3.81845 43.4905 8.58848 46.9105 12.6785 49.6505C13.2385 50.6505 13.6785 51.6505 14.2885 52.5705C15.2885 53.9805 15.7185 55.5705 16.5985 56.9905C16.659 57.0948 16.7496 57.1784 16.8585 57.2305C17.3418 60.5833 17.6124 63.9635 17.6685 67.3505C17.6685 69.5805 17.8685 71.8105 17.8585 74.0505C17.8485 76.2905 15.6585 77.6105 14.2285 79.2105C12.3985 81.2705 8.86845 85.9105 12.2785 88.2105C13.6785 89.1505 15.7485 88.9205 17.2785 88.5005C18.3597 88.1749 19.3291 87.5552 20.0785 86.7105C20.8485 89.3805 23.2885 91.6305 26.2985 90.7105C29.8585 89.5505 29.3685 84.3705 27.8985 81.8705ZM14.8985 50.9605C14.4971 50.2495 13.9522 49.6297 13.2985 49.1405C10.0085 46.7405 5.77845 42.6305 5.58845 38.2705C5.50845 36.3505 6.90846 34.6605 6.75846 32.7505C6.62846 31.1105 5.33845 29.6305 4.52845 28.2605C3.34845 26.2605 2.34846 24.3605 3.18846 22.0105C3.58462 21.2 3.88981 20.3482 4.09846 19.4705C4.22846 18.3905 3.78847 17.3505 3.85847 16.2705C3.91493 15.1648 4.20317 14.0833 4.70448 13.0962C5.20579 12.1091 5.909 11.2384 6.76847 10.5405C8.38847 9.41049 10.1285 9.25049 11.3985 7.62049C12.9485 5.62049 14.3985 4.22049 17.0285 4.16049C19.0376 4.07074 21.0254 3.71084 22.9385 3.09049C25.0009 2.38389 27.2169 2.25252 29.3485 2.71049C30.5602 2.97442 31.6957 3.51139 32.6685 4.28049C33.5685 5.05049 33.7285 6.28049 34.5885 7.03049C35.3051 7.48728 36.1087 7.79034 36.9485 7.92049C38.2198 8.33627 39.4278 8.92514 40.5385 9.67049C41.4547 10.1539 42.1416 10.9811 42.4485 11.9705C42.7985 13.3105 42.2085 14.6405 42.1685 15.9705C42.1085 17.8505 43.2785 19.4105 44.1185 20.9705C45.5285 23.6505 45.6685 25.7605 43.7085 28.1605C42.2685 29.9405 40.9285 31.1605 41.2085 33.5705C41.3985 35.2505 41.6685 36.7805 40.6785 38.3005C39.9224 39.2785 39.0969 40.2009 38.2085 41.0605C36.9245 42.5746 36.2381 44.5057 36.2785 46.4905C36.1985 48.2205 35.4685 48.8905 34.0185 49.6805C32.7485 50.3805 31.4385 51.0105 30.1285 51.6805H30.0685C29.0054 51.7351 27.9568 51.9509 26.9585 52.3205C26.1587 52.7351 25.4017 53.2275 24.6985 53.7905C23.1985 52.5105 22.3585 50.4705 19.9685 50.8605C17.9685 51.1905 17.7285 52.8605 17.2285 54.4505C17.0749 54.0585 16.8945 53.6776 16.6885 53.3105C16.1371 52.4963 15.5429 51.7118 14.9085 50.9605H14.8985ZM26.2885 88.3405C25.4385 89.2005 24.2885 88.8905 23.3585 88.3405C22.7077 87.9674 22.1791 87.4137 21.8366 86.7463C21.4941 86.079 21.3523 85.3267 21.4285 84.5805C21.4508 84.3871 21.4027 84.192 21.2929 84.0312C21.1832 83.8703 21.0192 83.7543 20.8309 83.7046C20.6427 83.6548 20.4428 83.6744 20.2679 83.76C20.0929 83.8456 19.9547 83.9913 19.8785 84.1705C19.2985 85.2185 18.3877 86.0449 17.2885 86.5205C16.4285 86.8805 14.5685 87.2205 13.6885 86.7605C11.4885 85.5905 14.0585 82.3405 15.0285 81.2405C17.0285 79.0505 19.7385 77.4505 19.6685 74.2405C19.6607 70.8264 19.4369 67.4163 18.9985 64.0305C18.7285 62.2805 18.4085 60.5505 18.0685 58.8105C17.9585 58.2205 17.9285 57.6205 17.8585 57.0305C17.8585 57.0305 17.9085 57.0305 17.9185 56.9705C18.9185 55.6705 18.5885 53.7405 19.9185 52.8305C20.9185 52.2005 21.2985 52.5405 22.0885 53.3205C22.3485 53.5805 22.5785 53.9205 22.8185 54.2005C23.1752 54.6933 23.588 55.1429 24.0485 55.5405C24.1693 55.6368 24.3139 55.6988 24.467 55.7199C24.6201 55.741 24.7761 55.7205 24.9185 55.6605C25.9185 55.2105 26.5785 54.4005 27.5885 53.9805C27.7185 53.9205 27.8585 53.8805 27.9885 53.8305C26.3461 56.4164 25.3197 59.3451 24.9885 62.3905C24.7185 64.2505 24.5385 66.1105 24.3385 67.9805C24.0985 70.1805 24.2785 72.4005 23.9385 74.5905C23.7385 75.9305 22.9385 77.8005 23.4485 79.1405C23.9585 80.4805 25.4485 81.2805 26.1585 82.4705C27.1885 84.1305 27.8085 86.8005 26.2985 88.3405H26.2885Z" fill="#151824"/>
<path d="M16.3584 40.2805C14.9184 39.4005 13.0084 39.2305 12.7584 37.1805C12.5584 35.5605 13.5684 34.5305 14.1984 33.1805C15.3084 30.8405 11.8084 29.4605 11.1984 27.3605C10.7084 25.6805 11.8484 24.3605 11.9384 22.7905C11.9288 21.8441 11.6012 20.9283 11.0084 20.1905C9.61844 17.9605 9.94842 16.0505 12.0584 14.4305C13.6984 13.1705 15.6884 12.0105 17.7984 12.6105C17.8245 12.6198 17.8531 12.619 17.8786 12.6082C17.9041 12.5973 17.9245 12.5773 17.9358 12.5521C17.9472 12.5268 17.9486 12.4982 17.9398 12.472C17.931 12.4458 17.9127 12.4238 17.8884 12.4105C15.1584 11.2105 11.2085 13.0805 9.64845 15.5105C9.23711 16.1686 9.00012 16.9207 8.95988 17.6957C8.91964 18.4708 9.07746 19.2433 9.41844 19.9405C9.98844 21.1705 10.5584 21.9405 10.0984 23.3505C9.70116 24.224 9.39295 25.1352 9.17845 26.0705C9.12454 26.8721 9.23219 27.6765 9.49501 28.4357C9.75783 29.195 10.1705 29.8937 10.7084 30.4905C11.0784 30.9505 12.4084 31.9805 12.5084 32.4905C12.6084 33.0005 11.6784 34.1805 11.5084 34.6505C11.2015 35.3919 11.0647 36.1926 11.108 36.9939C11.1512 37.7951 11.3735 38.5765 11.7584 39.2805C12.6984 40.9105 14.2484 41.2005 16.0184 41.2005C16.4184 41.1505 16.8484 40.5405 16.3584 40.2805Z" fill="#151824"/>
<path d="M25.0784 44.6305C23.2584 44.1505 21.1384 45.0105 20.0184 42.9105C19.6984 42.3105 19.3584 41.7905 19.0184 41.2105C18.6644 40.6183 18.4943 39.9342 18.5299 39.2451C18.5655 38.556 18.8052 37.8931 19.2184 37.3405C19.4884 36.8705 18.7284 36.4505 18.4184 36.8705C17.5308 37.8006 17.0488 39.0452 17.0784 40.3305C17.153 40.9851 17.3827 41.6125 17.7484 42.1605C18.1584 42.8305 18.4084 43.5605 18.8084 44.2205C19.9684 46.1305 23.5684 47.0605 25.3684 45.6305C25.4571 45.5617 25.5231 45.4679 25.5578 45.3612C25.5925 45.2545 25.5943 45.1398 25.5631 45.032C25.5318 44.9242 25.4689 44.8283 25.3825 44.7567C25.2961 44.6851 25.1901 44.6412 25.0784 44.6305Z" fill="#151824"/>
<path d="M23.4984 34.3505C22.4984 34.4505 20.9584 34.2505 20.9884 32.9005C20.9884 31.9005 21.9284 31.1405 22.4684 30.4505C22.5551 30.3168 22.5887 30.1555 22.5628 29.9982C22.5368 29.8409 22.4532 29.699 22.3281 29.6002C22.203 29.5014 22.0456 29.4528 21.8866 29.464C21.7276 29.4751 21.5785 29.5452 21.4684 29.6605C20.6984 30.6605 19.5884 31.6605 19.4684 32.9105C18.0684 32.5405 16.6784 31.9805 16.2184 30.4405C15.5984 28.3605 16.5484 26.6905 18.2184 25.4405C18.6684 25.1005 18.1584 24.4405 17.6984 24.7505C15.5284 26.1405 13.9184 28.4105 14.7584 31.1005C15.3684 33.1005 17.5784 34.7805 19.6884 34.2205C20.0403 34.9861 20.6588 35.5974 21.4284 35.9405C21.8686 36.0934 22.3401 36.1333 22.7996 36.0564C23.2592 35.9795 23.692 35.7884 24.0584 35.5005C24.5884 35.1705 24.1084 34.2805 23.4984 34.3505Z" fill="#151824"/>
<path d="M19.9484 21.0805C19.1484 21.0105 18.0984 20.8405 18.2384 19.8005C18.4267 19.0855 18.738 18.4087 19.1584 17.8005C19.5384 17.1105 18.3684 16.4205 17.9584 17.1005C17.3484 18.1005 16.4984 19.2305 16.6384 20.4805C16.8284 22.2105 18.4484 22.7705 19.9584 22.4805C20.1236 22.4513 20.2731 22.3645 20.3804 22.2356C20.4878 22.1067 20.546 21.944 20.5448 21.7763C20.5436 21.6086 20.483 21.4467 20.3739 21.3193C20.2647 21.192 20.114 21.1074 19.9484 21.0805Z" fill="#151824"/>
<path d="M33.9885 11.0005C33.1355 9.25633 31.7763 7.81 30.0884 6.8505C28.4784 6.1305 26.4184 7.0605 25.0284 7.8505C24.8684 7.9405 24.7685 8.00049 24.7685 8.02049C24.5585 8.02049 24.3285 7.9005 24.1085 7.9005C23.2779 7.9671 22.5047 8.35014 21.9485 8.9705C21.3621 9.50399 20.9729 10.2198 20.8441 11.002C20.7152 11.7843 20.8542 12.5871 21.2385 13.2805C21.3081 13.3903 21.4143 13.4719 21.5383 13.5108C21.6623 13.5497 21.7961 13.5434 21.916 13.4931C22.0358 13.4428 22.1339 13.3516 22.193 13.2358C22.252 13.12 22.2681 12.987 22.2385 12.8605C21.5985 11.2305 22.7985 8.7205 24.8485 9.4205C24.9555 9.4678 25.0733 9.48534 25.1895 9.47126C25.3056 9.45718 25.4158 9.412 25.5085 9.34049C26.2569 8.70066 27.2173 8.36342 28.2014 8.39487C29.1855 8.42632 30.1224 8.82419 30.8285 9.5105C31.5885 10.3305 32.2985 11.4105 33.4285 11.6705C33.5146 11.6811 33.6021 11.6699 33.6828 11.638C33.7636 11.6061 33.835 11.5545 33.8907 11.4878C33.9464 11.4212 33.9845 11.3417 34.0016 11.2566C34.0187 11.1715 34.0142 11.0834 33.9885 11.0005Z" fill="#151824"/>
<path d="M39.6785 24.7905C38.9985 23.2805 40.6284 21.5305 39.8484 19.7905C39.1584 18.2405 37.6385 18.2405 36.1785 18.3805C35.6885 18.3805 35.6785 19.2405 36.1785 19.2505C40.2285 19.3605 37.2384 22.9705 38.1284 24.9805C38.8084 26.4905 39.4584 27.4005 38.2784 28.9805C37.5288 29.7567 36.7342 30.4879 35.8985 31.1705C35.3785 31.7105 36.1184 32.4505 36.7184 32.2405C37.5212 31.9642 38.2539 31.5158 38.8654 30.9268C39.4768 30.3378 39.9523 29.6224 40.2584 28.8305C40.9084 27.1805 40.3285 26.2805 39.6785 24.7905Z" fill="#151824"/>
<path d="M33.5384 32.0505C33.3284 31.4105 32.3784 31.8205 32.5384 32.4505C32.9051 33.3428 33.0058 34.3222 32.8284 35.2705C32.4895 36.1402 32.078 36.9798 31.5984 37.7805C31.4384 38.1205 31.8484 38.5705 32.1984 38.3905C34.7584 37.0405 34.2884 34.2805 33.5384 32.0505Z" fill="#151824"/>
</svg>
